RobotoSerifTextWide-Regular-15.ufo
<glyph name="C" format="1">
  <advance width="826"/>
  <unicode hex="0043"/>
  <outline>
    <contour>
      <point x="436" y="656" type="curve" smooth="yes"/>
      <point x="574" y="656"/>
      <point x="659" y="594"/>
      <point x="701" y="503" type="curve"/>
      <point x="771" y="503" type="line"/>
      <point x="771" y="710" type="line"/>
      <point x="709" y="710" type="line"/>
      <point x="689" y="559" type="line"/>
      <point x="728" y="558" type="line"/>
      <point x="687" y="660"/>
      <point x="593" y="720"/>
      <point x="435" y="720" type="curve" smooth="yes"/>
      <point x="223" y="720"/>
      <point x="48" y="569"/>
      <point x="48" y="355" type="curve" smooth="yes"/>
      <point x="48" y="138"/>
      <point x="212" y="-10"/>
      <point x="447" y="-10" type="curve" smooth="yes"/>
      <point x="626" y="-10"/>
      <point x="744" y="87"/>
      <point x="790" y="231" type="curve"/>
      <point x="726" y="257" type="line"/>
      <point x="691" y="140"/>
      <point x="599" y="54"/>
      <point x="455" y="54" type="curve" smooth="yes"/>
      <point x="269" y="54"/>
      <point x="153" y="173"/>
      <point x="153" y="355" type="curve" smooth="yes"/>
      <point x="153" y="537"/>
      <point x="280" y="656"/>
    </contour>
  </outline>
</glyph>
<glyph name="G" format="1">
  <advance width="887"/>
  <unicode hex="0047"/>
  <outline>
    <contour>
      <point x="783" y="269" type="line" smooth="yes"/>
      <point x="783" y="298"/>
      <point x="814" y="305"/>
      <point x="856" y="305" type="curve" smooth="yes"/>
      <point x="861" y="305" type="line"/>
      <point x="861" y="354" type="line"/>
      <point x="590" y="354" type="line"/>
      <point x="590" y="305" type="line"/>
      <point x="602" y="305" type="line" smooth="yes"/>
      <point x="651" y="305"/>
      <point x="687" y="298"/>
      <point x="687" y="269" type="curve" smooth="yes"/>
      <point x="687" y="118" type="line"/>
      <point x="663" y="99"/>
      <point x="596" y="54"/>
      <point x="470" y="54" type="curve" smooth="yes"/>
      <point x="273" y="54"/>
      <point x="153" y="167"/>
      <point x="153" y="355" type="curve" smooth="yes"/>
      <point x="153" y="537"/>
      <point x="267" y="656"/>
      <point x="442" y="656" type="curve" smooth="yes"/>
      <point x="586" y="656"/>
      <point x="672" y="594"/>
      <point x="715" y="503" type="curve"/>
      <point x="785" y="503" type="line"/>
      <point x="785" y="710" type="line"/>
      <point x="723" y="710" type="line"/>
      <point x="704" y="560" type="line"/>
      <point x="741" y="559" type="line"/>
      <point x="704" y="655"/>
      <point x="596" y="720"/>
      <point x="442" y="720" type="curve" smooth="yes"/>
      <point x="213" y="720"/>
      <point x="48" y="569"/>
      <point x="48" y="355" type="curve" smooth="yes"/>
      <point x="48" y="137"/>
      <point x="215" y="-10"/>
      <point x="469" y="-10" type="curve" smooth="yes"/>
      <point x="619" y="-10"/>
      <point x="738" y="50"/>
      <point x="783" y="100" type="curve"/>
    </contour>
    <contour>
      <point x="452" y="741" type="move" name="top"/>
    </contour>
    <contour>
      <point x="452" y="0" type="move" name="bottom"/>
    </contour>
  </outline>
</glyph>
<glyph name="W" format="1">
  <advance width="1166"/>
  <unicode hex="0057"/>
  <outline>
    <contour>
      <point x="10" y="710" type="line"/>
      <point x="10" y="661" type="line"/>
      <point x="16" y="661" type="line" smooth="yes"/>
      <point x="55" y="661"/>
      <point x="79" y="658"/>
      <point x="90" y="625" type="curve" smooth="yes"/>
      <point x="289" y="0" type="line"/>
      <point x="397" y="0" type="line"/>
      <point x="593" y="640" type="line"/>
      <point x="570" y="640" type="line"/>
      <point x="786" y="0" type="line"/>
      <point x="894" y="0" type="line"/>
      <point x="1077" y="618" type="line" smooth="yes"/>
      <point x="1087" y="652"/>
      <point x="1113" y="661"/>
      <point x="1150" y="661" type="curve" smooth="yes"/>
      <point x="1156" y="661" type="line"/>
      <point x="1156" y="710" type="line"/>
      <point x="913" y="710" type="line"/>
      <point x="913" y="661" type="line"/>
      <point x="930" y="661" type="line" smooth="yes"/>
      <point x="968" y="661"/>
      <point x="1013" y="654"/>
      <point x="1013" y="643" type="curve"/>
      <point x="843" y="57" type="line"/>
      <point x="865" y="57" type="line"/>
      <point x="647" y="710" type="line"/>
      <point x="544" y="710" type="line"/>
      <point x="346" y="54" type="line"/>
      <point x="371" y="54" type="line"/>
      <point x="185" y="651" type="line"/>
      <point x="185" y="658"/>
      <point x="227" y="661"/>
      <point x="263" y="661" type="curve" smooth="yes"/>
      <point x="283" y="661" type="line"/>
      <point x="283" y="710" type="line"/>
    </contour>
    <contour>
      <point x="599" y="741" type="move" name="top"/>
    </contour>
  </outline>
</glyph>
<glyph name="bracketleft" format="1">
  <advance width="344"/>
  <unicode hex="005B"/>
  <outline>
    <contour>
      <point x="55" y="750" type="line"/>
      <point x="55" y="-130" type="line"/>
      <point x="141" y="-130" type="line"/>
      <point x="141" y="750" type="line"/>
    </contour>
    <contour>
      <point x="319" y="750" type="line"/>
      <point x="100" y="750" type="line"/>
      <point x="100" y="698" type="line"/>
      <point x="319" y="698" type="line"/>
    </contour>
    <contour>
      <point x="319" y="-78" type="line"/>
      <point x="100" y="-78" type="line"/>
      <point x="100" y="-130" type="line"/>
      <point x="319" y="-130" type="line"/>
    </contour>
  </outline>
</glyph>
<glyph name="y" format="1">
  <advance width="660"/>
  <unicode hex="0079"/>
  <outline>
    <contour>
      <point x="303" y="-17" type="line"/>
      <point x="356" y="8" type="line"/>
      <point x="367" y="50" type="line"/>
      <point x="175" y="453" type="line"/>
      <point x="175" y="460"/>
      <point x="226" y="462"/>
      <point x="268" y="462" type="curve" smooth="yes"/>
      <point x="270" y="462" type="line"/>
      <point x="270" y="508" type="line"/>
      <point x="7" y="508" type="line"/>
      <point x="7" y="462" type="line"/>
      <point x="8" y="462" type="line"/>
      <point x="50" y="462"/>
      <point x="73" y="454"/>
      <point x="87" y="427" type="curve" smooth="yes"/>
    </contour>
    <contour>
      <point x="108" y="-232" type="curve" smooth="yes"/>
      <point x="229" y="-232"/>
      <point x="292" y="-171"/>
      <point x="344" y="-64" type="curve" smooth="yes"/>
      <point x="577" y="417" type="line" smooth="yes"/>
      <point x="594" y="453"/>
      <point x="619" y="462"/>
      <point x="652" y="462" type="curve"/>
      <point x="653" y="462" type="line"/>
      <point x="653" y="508" type="line"/>
      <point x="423" y="508" type="line"/>
      <point x="423" y="462" type="line"/>
      <point x="426" y="462" type="line" smooth="yes"/>
      <point x="469" y="462"/>
      <point x="516" y="453"/>
      <point x="516" y="440" type="curve"/>
      <point x="343" y="69" type="line"/>
      <point x="295" y="-23" type="line" smooth="yes"/>
      <point x="243" y="-121"/>
      <point x="195" y="-148"/>
      <point x="114" y="-148" type="curve" smooth="yes"/>
      <point x="67" y="-148"/>
      <point x="30" y="-132"/>
      <point x="23" y="-130" type="curve"/>
      <point x="23" y="-214" type="line"/>
      <point x="38" y="-224"/>
      <point x="70" y="-232"/>
    </contour>
    <contour>
      <point x="335" y="551" type="move" name="top"/>
    </contour>
    <contour>
      <point x="346" y="-211" type="move" name="bottom"/>
    </contour>
  </outline>
</glyph>
<glyph name="macron" format="1">
  <advance width="588"/>
  <unicode hex="00AF"/>
  <outline>
    <contour>
      <point x="127" y="692" type="line"/>
      <point x="127" y="624" type="line"/>
      <point x="460" y="624" type="line"/>
      <point x="460" y="692" type="line"/>
    </contour>
    <contour>
      <point x="294" y="526" type="move" name="_top"/>
    </contour>
  </outline>
</glyph>
<glyph name="Eth" format="1">
  <advance width="898"/>
  <unicode hex="00D0"/>
  <outline>
    <contour>
      <point x="53" y="382" type="line"/>
      <point x="511" y="382" type="line"/>
      <point x="511" y="328" type="line"/>
      <point x="53" y="328" type="line"/>
    </contour>
    <component base="D" xOffset="63"/>
  </outline>
</glyph>
<glyph name="dcroat" format="1">
  <advance width="744"/>
  <unicode hex="0111"/>
  <outline>
    <contour>
      <point x="154" y="250" type="curve" smooth="yes"/>
      <point x="154" y="376"/>
      <point x="218" y="458"/>
      <point x="336" y="458" type="curve" smooth="yes"/>
      <point x="429" y="458"/>
      <point x="498" y="412"/>
      <point x="549" y="312" type="curve"/>
      <point x="591" y="334" type="line"/>
      <point x="518" y="463"/>
      <point x="453" y="518"/>
      <point x="332" y="518" type="curve" smooth="yes"/>
      <point x="166" y="518"/>
      <point x="54" y="409"/>
      <point x="54" y="250" type="curve" smooth="yes"/>
      <point x="54" y="94"/>
      <point x="162" y="-10"/>
      <point x="324" y="-10" type="curve" smooth="yes"/>
      <point x="447" y="-10"/>
      <point x="511" y="50"/>
      <point x="591" y="177" type="curve"/>
      <point x="551" y="201" type="line"/>
      <point x="497" y="103"/>
      <point x="428" y="50"/>
      <point x="331" y="50" type="curve" smooth="yes"/>
      <point x="217" y="50"/>
      <point x="154" y="127"/>
    </contour>
    <contour>
      <point x="527" y="735" type="line"/>
      <point x="527" y="115" type="line"/>
      <point x="535" y="112" type="line"/>
      <point x="535" y="0" type="line"/>
      <point x="721" y="0" type="line"/>
      <point x="721" y="47" type="line"/>
      <point x="720" y="47" type="line"/>
      <point x="663" y="47"/>
      <point x="622" y="54"/>
      <point x="622" y="82" type="curve" smooth="yes"/>
      <point x="622" y="735" type="line"/>
    </contour>
    <contour>
      <point x="743" y="634" type="line"/>
      <point x="300" y="634" type="line"/>
      <point x="300" y="580" type="line"/>
      <point x="743" y="580" type="line"/>
    </contour>
  </outline>
</glyph>
<glyph name="eogonek" format="1">
  <advance width="638"/>
  <unicode hex="0119"/>
  <outline>
    <contour>
      <point x="454" y="37" type="line"/>
      <point x="333" y="-19"/>
      <point x="251" y="-76"/>
      <point x="251" y="-145" type="curve" smooth="yes"/>
      <point x="251" y="-202"/>
      <point x="304" y="-236"/>
      <point x="376" y="-236" type="curve" smooth="yes"/>
      <point x="435" y="-236"/>
      <point x="468" y="-217"/>
      <point x="498" y="-189" type="curve"/>
      <point x="465" y="-154" type="line"/>
      <point x="448" y="-166"/>
      <point x="426" y="-182"/>
      <point x="398" y="-182" type="curve" smooth="yes"/>
      <point x="369" y="-182"/>
      <point x="347" y="-167"/>
      <point x="347" y="-134" type="curve" smooth="yes"/>
      <point x="347" y="-77"/>
      <point x="402" y="-40"/>
      <point x="507" y="28" type="curve" smooth="yes"/>
      <point x="550" y="56"/>
      <point x="570" y="79"/>
      <point x="589" y="108" type="curve"/>
      <point x="538" y="150" type="line"/>
      <point x="505" y="104"/>
      <point x="452" y="49"/>
      <point x="354" y="49" type="curve" smooth="yes"/>
      <point x="238" y="49"/>
      <point x="151" y="122"/>
      <point x="151" y="250" type="curve" smooth="yes"/>
      <point x="151" y="380"/>
      <point x="231" y="459"/>
      <point x="332" y="459" type="curve" smooth="yes"/>
      <point x="439" y="459"/>
      <point x="488" y="398"/>
      <point x="491" y="265" type="curve"/>
      <point x="521" y="288" type="line"/>
      <point x="117" y="288" type="line"/>
      <point x="118" y="230" type="line"/>
      <point x="592" y="230" type="line"/>
      <point x="591" y="423"/>
      <point x="501" y="518"/>
      <point x="332" y="518" type="curve" smooth="yes"/>
      <point x="176" y="518"/>
      <point x="54" y="409"/>
      <point x="54" y="252" type="curve" smooth="yes"/>
      <point x="54" y="92"/>
      <point x="183" y="-10"/>
      <point x="352" y="-10" type="curve" smooth="yes"/>
      <point x="395" y="-10"/>
      <point x="431" y="-3"/>
      <point x="463" y="9" type="curve"/>
    </contour>
  </outline>
</glyph>
<glyph name="tbar" format="1">
  <advance width="432"/>
  <unicode hex="0167"/>
  <outline>
    <contour>
      <point x="393" y="324" type="line"/>
      <point x="11" y="324" type="line"/>
      <point x="11" y="270" type="line"/>
      <point x="393" y="270" type="line"/>
    </contour>
    <component base="t" xOffset="31"/>
  </outline>
</glyph>
<glyph name="ring" format="1">
  <advance width="588"/>
  <unicode hex="02DA"/>
  <outline>
    <contour>
      <point x="226" y="670" type="curve" smooth="yes"/>
      <point x="226" y="711"/>
      <point x="255" y="732"/>
      <point x="294" y="732" type="curve" smooth="yes"/>
      <point x="332" y="732"/>
      <point x="362" y="711"/>
      <point x="362" y="670" type="curve" smooth="yes"/>
      <point x="362" y="628"/>
      <point x="332" y="608"/>
      <point x="294" y="608" type="curve" smooth="yes"/>
      <point x="255" y="608"/>
      <point x="226" y="628"/>
    </contour>
    <contour>
      <point x="425" y="670" type="curve" smooth="yes"/>
      <point x="425" y="732"/>
      <point x="367" y="768"/>
      <point x="294" y="768" type="curve" smooth="yes"/>
      <point x="221" y="768"/>
      <point x="162" y="732"/>
      <point x="162" y="670" type="curve" smooth="yes"/>
      <point x="162" y="607"/>
      <point x="221" y="571"/>
      <point x="294" y="571" type="curve" smooth="yes"/>
      <point x="366" y="571"/>
      <point x="425" y="607"/>
    </contour>
    <contour>
      <point x="294" y="526" type="move" name="_top"/>
    </contour>
  </outline>
</glyph>
<glyph name="ogonekcomb" format="1">
  <unicode hex="033D"/>
  <outline>
    <component base="ogonek" xOffset="-687"/>
    <contour>
      <point x="-315" y="9" type="move" name="_right"/>
    </contour>
  </outline>
</glyph>
<glyph name="franc" format="1">
  <advance width="658"/>
  <unicode hex="20A3"/>
  <outline>
    <contour>
      <point x="225" y="403" type="line"/>
      <point x="225" y="350" type="line"/>
      <point x="519" y="341" type="line"/>
      <point x="519" y="411" type="line"/>
    </contour>
    <contour>
      <point x="258" y="651" type="line"/>
      <point x="401" y="651" type="line" smooth="yes"/>
      <point x="502" y="651"/>
      <point x="544" y="644"/>
      <point x="548" y="608" type="curve" smooth="yes"/>
      <point x="559" y="524" type="line"/>
      <point x="620" y="524" type="line"/>
      <point x="620" y="710" type="line"/>
      <point x="46" y="710" type="line"/>
      <point x="46" y="661" type="line"/>
      <point x="59" y="661" type="line" smooth="yes"/>
      <point x="117" y="661"/>
      <point x="159" y="654"/>
      <point x="159" y="625" type="curve" smooth="yes"/>
      <point x="159" y="85" type="line" smooth="yes"/>
      <point x="159" y="56"/>
      <point x="117" y="49"/>
      <point x="59" y="49" type="curve" smooth="yes"/>
      <point x="46" y="49" type="line"/>
      <point x="46" y="0" type="line"/>
      <point x="390" y="0" type="line"/>
      <point x="390" y="49" type="line"/>
      <point x="370" y="49" type="line" smooth="yes"/>
      <point x="319" y="49"/>
      <point x="258" y="50"/>
      <point x="258" y="85" type="curve" smooth="yes"/>
    </contour>
    <contour>
      <point x="46" y="231" type="line"/>
      <point x="46" y="178" type="line"/>
      <point x="412" y="178" type="line"/>
      <point x="412" y="231" type="line"/>
    </contour>
  </outline>
</glyph>
<glyph name="dong" format="1">
  <advance width="658"/>
  <unicode hex="20AB"/>
  <outline>
    <contour>
      <point x="147" y="250" type="curve" smooth="yes"/>
      <point x="147" y="376"/>
      <point x="201" y="458"/>
      <point x="301" y="458" type="curve" smooth="yes"/>
      <point x="386" y="458"/>
      <point x="444" y="412"/>
      <point x="488" y="313" type="curve"/>
      <point x="530" y="334" type="line"/>
      <point x="464" y="460"/>
      <point x="408" y="518"/>
      <point x="298" y="518" type="curve" smooth="yes"/>
      <point x="147" y="518"/>
      <point x="46" y="410"/>
      <point x="46" y="250" type="curve" smooth="yes"/>
      <point x="46" y="94"/>
      <point x="143" y="-11"/>
      <point x="289" y="-11" type="curve" smooth="yes"/>
      <point x="402" y="-11"/>
      <point x="457" y="53"/>
      <point x="531" y="176" type="curve"/>
      <point x="490" y="200" type="line"/>
      <point x="443" y="102"/>
      <point x="384" y="49"/>
      <point x="296" y="49" type="curve" smooth="yes"/>
      <point x="199" y="49"/>
      <point x="147" y="127"/>
    </contour>
    <contour>
      <point x="466" y="735" type="line"/>
      <point x="466" y="114" type="line"/>
      <point x="474" y="112" type="line"/>
      <point x="474" y="0" type="line"/>
      <point x="656" y="0" type="line"/>
      <point x="656" y="47" type="line"/>
      <point x="653" y="47" type="line"/>
      <point x="599" y="47"/>
      <point x="561" y="54"/>
      <point x="561" y="82" type="curve" smooth="yes"/>
      <point x="561" y="735" type="line"/>
    </contour>
    <contour>
      <point x="105" y="-126" type="line"/>
      <point x="105" y="-188" type="line"/>
      <point x="611" y="-188" type="line"/>
      <point x="611" y="-126" type="line"/>
    </contour>
    <contour>
      <point x="259" y="625" type="line"/>
      <point x="259" y="571" type="line"/>
      <point x="672" y="571" type="line"/>
      <point x="672" y="625" type="line"/>
    </contour>
  </outline>
</glyph>
<glyph name="kip" format="1">
  <advance width="658"/>
  <unicode hex="20AD"/>
  <outline>
    <contour>
      <point x="20" y="398" type="line"/>
      <point x="20" y="344" type="line"/>
      <point x="585" y="344" type="line"/>
      <point x="585" y="398" type="line"/>
    </contour>
    <contour>
      <point x="20" y="0" type="line"/>
      <point x="290" y="0" type="line" smooth="yes"/>
      <point x="290" y="49" type="line" smooth="yes"/>
      <point x="279" y="49" type="line" smooth="yes"/>
      <point x="243" y="49"/>
      <point x="199" y="52"/>
      <point x="199" y="58" type="curve" smooth="yes"/>
      <point x="199" y="651" type="line" smooth="yes"/>
      <point x="199" y="658"/>
      <point x="243" y="661"/>
      <point x="279" y="661" type="curve" smooth="yes"/>
      <point x="290" y="661" type="line" smooth="yes"/>
      <point x="290" y="710" type="line" smooth="yes"/>
      <point x="20" y="710" type="line"/>
      <point x="20" y="661" type="line"/>
      <point x="33" y="661" type="line" smooth="yes"/>
      <point x="73" y="661"/>
      <point x="103" y="654"/>
      <point x="103" y="626" type="curve" smooth="yes"/>
      <point x="103" y="84" type="line" smooth="yes"/>
      <point x="103" y="56"/>
      <point x="73" y="49"/>
      <point x="33" y="49" type="curve" smooth="yes"/>
      <point x="20" y="49" type="line"/>
    </contour>
    <contour>
      <point x="643" y="49" type="line"/>
      <point x="635" y="49" type="line" smooth="yes"/>
      <point x="601" y="49"/>
      <point x="579" y="54"/>
      <point x="559" y="81" type="curve" smooth="yes"/>
      <point x="323" y="410" type="line"/>
      <point x="317" y="360" type="line"/>
      <point x="538" y="632" type="line" smooth="yes"/>
      <point x="556" y="655"/>
      <point x="577" y="661"/>
      <point x="602" y="661" type="curve" smooth="yes"/>
      <point x="616" y="661" type="line"/>
      <point x="616" y="710" type="line"/>
      <point x="388" y="710" type="line"/>
      <point x="388" y="661" type="line"/>
      <point x="397" y="661" type="line" smooth="yes"/>
      <point x="431" y="661"/>
      <point x="473" y="658"/>
      <point x="475" y="651" type="curve"/>
      <point x="246" y="367" type="line"/>
      <point x="250" y="351" type="line"/>
      <point x="460" y="58" type="line"/>
      <point x="460" y="52"/>
      <point x="417" y="49"/>
      <point x="382" y="49" type="curve" smooth="yes"/>
      <point x="371" y="49" type="line"/>
      <point x="371" y="0" type="line"/>
      <point x="643" y="0" type="line"/>
    </contour>
  </outline>
</glyph>
<glyph name="caroncomb.alt" format="1">
  <advance width="494"/>
  <outline>
    <contour>
      <point x="125" y="526" type="line"/>
      <point x="67" y="526" type="line"/>
      <point x="67" y="536" type="line"/>
      <point x="88" y="710" type="line"/>
      <point x="187" y="710" type="line"/>
    </contour>
    <contour>
      <point x="49" y="574" type="move" name="_right"/>
    </contour>
  </outline>
</glyph>
<glyph name="commaturnedabovecomb" format="1">
  <outline>
    <component base="quoteleft" xOffset="-491"/>
    <contour>
      <point x="-310" y="397" type="move" name="_top"/>
    </contour>
  </outline>
</glyph>
<glyph name="florin" format="1">
  <advance width="658"/>
  <outline>
    <contour>
      <point x="171" y="508" type="line"/>
      <point x="164" y="452" type="line"/>
      <point x="578" y="452" type="line"/>
      <point x="585" y="508" type="line"/>
    </contour>
    <contour>
      <point x="303" y="57" type="curve" smooth="yes"/>
      <point x="388" y="581" type="line" smooth="yes"/>
      <point x="403" y="668"/>
      <point x="453" y="698"/>
      <point x="532" y="698" type="curve" smooth="yes"/>
      <point x="571" y="698"/>
      <point x="606" y="691"/>
      <point x="644" y="679" type="curve"/>
      <point x="649" y="747" type="line"/>
      <point x="619" y="759"/>
      <point x="572" y="766"/>
      <point x="531" y="766" type="curve" smooth="yes"/>
      <point x="399" y="766"/>
      <point x="316" y="708"/>
      <point x="296" y="586" type="curve" smooth="yes"/>
      <point x="208" y="43" type="line" smooth="yes"/>
      <point x="178" y="-138"/>
      <point x="121" y="-168"/>
      <point x="54" y="-168" type="curve" smooth="yes"/>
      <point x="23" y="-168"/>
      <point x="-8" y="-161"/>
      <point x="-32" y="-154" type="curve"/>
      <point x="-38" y="-222" type="line"/>
      <point x="-20" y="-229"/>
      <point x="13" y="-236"/>
      <point x="53" y="-236" type="curve" smooth="yes"/>
      <point x="171" y="-236"/>
      <point x="268" y="-155"/>
    </contour>
  </outline>
</glyph>
<glyph name="liraTurkish" format="1">
  <advance width="658"/>
  <outline>
    <contour>
      <point x="39" y="412" type="line"/>
      <point x="39" y="358" type="line"/>
      <point x="496" y="533" type="line"/>
      <point x="496" y="587" type="line"/>
    </contour>
    <contour>
      <point x="39" y="248" type="line"/>
      <point x="39" y="194" type="line"/>
      <point x="496" y="369" type="line"/>
      <point x="496" y="423" type="line"/>
    </contour>
    <contour>
      <point x="313" y="59" type="curve" smooth="yes"/>
      <point x="249" y="59" type="line"/>
      <point x="249" y="625" type="line" smooth="yes"/>
      <point x="249" y="654"/>
      <point x="291" y="661"/>
      <point x="349" y="661" type="curve" smooth="yes"/>
      <point x="362" y="661" type="line"/>
      <point x="362" y="710" type="line"/>
      <point x="39" y="710" type="line"/>
      <point x="39" y="661" type="line"/>
      <point x="50" y="661" type="line" smooth="yes"/>
      <point x="108" y="661"/>
      <point x="150" y="654"/>
      <point x="150" y="625" type="curve" smooth="yes"/>
      <point x="150" y="85" type="line" smooth="yes"/>
      <point x="150" y="56"/>
      <point x="108" y="49"/>
      <point x="50" y="49" type="curve" smooth="yes"/>
      <point x="39" y="49" type="line"/>
      <point x="39" y="0" type="line"/>
      <point x="298" y="0" type="line" smooth="yes"/>
      <point x="504" y="0"/>
      <point x="614" y="96"/>
      <point x="625" y="275" type="curve"/>
      <point x="546" y="299" type="line"/>
      <point x="542" y="144"/>
      <point x="464" y="59"/>
    </contour>
  </outline>
</glyph>
<glyph name="one.lin" format="1">
  <advance width="658"/>
  <outline>
    <contour>
      <point x="401" y="85" type="curve" smooth="yes"/>
      <point x="401" y="710" type="line"/>
      <point x="334" y="710" type="line"/>
      <point x="292" y="659"/>
      <point x="208" y="636"/>
      <point x="97" y="634" type="curve"/>
      <point x="97" y="570" type="line"/>
      <point x="200" y="569"/>
      <point x="298" y="599"/>
      <point x="320" y="647" type="curve"/>
      <point x="326" y="660"/>
      <point x="318" y="658"/>
      <point x="302" y="637" type="curve"/>
      <point x="302" y="85" type="line" smooth="yes"/>
      <point x="302" y="56"/>
      <point x="255" y="49"/>
      <point x="179" y="49" type="curve" smooth="yes"/>
      <point x="116" y="49" type="line"/>
      <point x="116" y="0" type="line"/>
      <point x="586" y="0" type="line"/>
      <point x="586" y="49" type="line"/>
      <point x="536" y="49" type="line" smooth="yes"/>
      <point x="453" y="49"/>
      <point x="401" y="56"/>
    </contour>
  </outline>
</glyph>
<glyph name="sterling.alt" format="1">
  <advance width="658"/>
  <outline>
    <contour>
      <point x="39" y="371" type="line"/>
      <point x="39" y="316" type="line"/>
      <point x="473" y="316" type="line"/>
      <point x="473" y="371" type="line"/>
    </contour>
    <contour>
      <point x="36" y="0" type="line"/>
      <point x="609" y="0" type="line"/>
      <point x="609" y="217" type="line"/>
      <point x="547" y="217" type="line"/>
      <point x="536" y="119" type="line" smooth="yes"/>
      <point x="533" y="83"/>
      <point x="491" y="76"/>
      <point x="390" y="76" type="curve"/>
      <point x="69" y="76" type="line"/>
      <point x="123" y="63" type="line"/>
      <point x="221" y="101"/>
      <point x="278" y="186"/>
      <point x="278" y="260" type="curve" smooth="yes"/>
      <point x="278" y="364"/>
      <point x="197" y="415"/>
      <point x="197" y="525" type="curve" smooth="yes"/>
      <point x="197" y="606"/>
      <point x="271" y="656"/>
      <point x="376" y="656" type="curve" smooth="yes"/>
      <point x="458" y="656"/>
      <point x="506" y="632"/>
      <point x="540" y="603" type="curve"/>
      <point x="539" y="623"/>
      <point x="526" y="647"/>
      <point x="498" y="649" type="curve"/>
      <point x="498" y="543" type="line"/>
      <point x="594" y="543" type="line"/>
      <point x="594" y="662" type="line"/>
      <point x="561" y="688"/>
      <point x="489" y="718"/>
      <point x="375" y="718" type="curve" smooth="yes"/>
      <point x="208" y="718"/>
      <point x="96" y="638"/>
      <point x="96" y="520" type="curve" smooth="yes"/>
      <point x="96" y="409"/>
      <point x="199" y="349"/>
      <point x="199" y="244" type="curve" smooth="yes"/>
      <point x="199" y="170"/>
      <point x="112" y="113"/>
      <point x="36" y="76" type="curve"/>
    </contour>
  </outline>
</glyph>
<glyph name="three.old" format="1">
  <advance width="658"/>
  <outline>
    <contour>
      <point x="322" y="-88" type="curve" smooth="yes"/>
      <point x="433" y="-88"/>
      <point x="507" y="-38"/>
      <point x="507" y="53" type="curve" smooth="yes"/>
      <point x="507" y="138"/>
      <point x="447" y="194"/>
      <point x="298" y="194" type="curve" smooth="yes"/>
      <point x="213" y="194" type="line"/>
      <point x="213" y="253" type="line"/>
      <point x="284" y="253" type="line" smooth="yes"/>
      <point x="403" y="253"/>
      <point x="477" y="296"/>
      <point x="477" y="382" type="curve" smooth="yes"/>
      <point x="477" y="464"/>
      <point x="408" y="497"/>
      <point x="322" y="497" type="curve" smooth="yes"/>
      <point x="230" y="497"/>
      <point x="170" y="461"/>
      <point x="134" y="414" type="curve"/>
      <point x="138" y="451"/>
      <point x="155" y="474"/>
      <point x="180" y="478" type="curve"/>
      <point x="180" y="372" type="line"/>
      <point x="84" y="372" type="line"/>
      <point x="84" y="464" type="line"/>
      <point x="119" y="509"/>
      <point x="205" y="558"/>
      <point x="324" y="558" type="curve" smooth="yes"/>
      <point x="470" y="558"/>
      <point x="575" y="494"/>
      <point x="575" y="394" type="curve" smooth="yes"/>
      <point x="575" y="291"/>
      <point x="451" y="221"/>
      <point x="293" y="221" type="curve"/>
      <point x="314" y="231" type="line"/>
      <point x="534" y="231"/>
      <point x="608" y="152"/>
      <point x="608" y="52" type="curve" smooth="yes"/>
      <point x="608" y="-68"/>
      <point x="488" y="-150"/>
      <point x="322" y="-150" type="curve" smooth="yes"/>
      <point x="169" y="-150"/>
      <point x="75" y="-88"/>
      <point x="29" y="1" type="curve"/>
      <point x="83" y="43" type="line"/>
      <point x="119" y="-21"/>
      <point x="187" y="-88"/>
    </contour>
  </outline>
</glyph>
<glyph name="tilde.uc" format="1">
  <advance width="588"/>
  <outline>
    <contour>
      <point x="366" y="764" type="curve" smooth="yes"/>
      <point x="429" y="764"/>
      <point x="473" y="804"/>
      <point x="492" y="872" type="curve"/>
      <point x="437" y="891" type="line"/>
      <point x="425" y="858"/>
      <point x="409" y="836"/>
      <point x="378" y="836" type="curve" smooth="yes"/>
      <point x="329" y="836"/>
      <point x="295" y="887"/>
      <point x="219" y="887" type="curve" smooth="yes"/>
      <point x="153" y="887"/>
      <point x="116" y="850"/>
      <point x="100" y="779" type="curve"/>
      <point x="155" y="760" type="line"/>
      <point x="163" y="796"/>
      <point x="178" y="817"/>
      <point x="209" y="817" type="curve" smooth="yes"/>
      <point x="252" y="817"/>
      <point x="285" y="764"/>
    </contour>
    <contour>
      <point x="294" y="694" type="move" name="_top"/>
    </contour>
  </outline>
</glyph>
<glyph name="tilde_macron" format="1">
  <advance width="616"/>
  <outline>
    <component base="tilde" xOffset="55"/>
    <component base="macron" xOffset="54" yOffset="163"/>
    <contour>
      <point x="306" y="535" type="move" name="_top"/>
    </contour>
  </outline>
</glyph>
<glyph name="two.old" format="1">
  <advance width="658"/>
  <outline>
    <contour>
      <point x="317" y="498" type="curve" smooth="yes"/>
      <point x="230" y="498"/>
      <point x="164" y="458"/>
      <point x="125" y="410" type="curve"/>
      <point x="131" y="448"/>
      <point x="144" y="472"/>
      <point x="172" y="474" type="curve"/>
      <point x="172" y="367" type="line"/>
      <point x="76" y="367" type="line"/>
      <point x="76" y="460" type="line"/>
      <point x="112" y="506"/>
      <point x="203" y="558"/>
      <point x="317" y="558" type="curve" smooth="yes"/>
      <point x="467" y="558"/>
      <point x="556" y="499"/>
      <point x="556" y="392" type="curve" smooth="yes"/>
      <point x="556" y="248"/>
      <point x="306" y="134"/>
      <point x="96" y="49" type="curve"/>
      <point x="88" y="53"/>
      <point x="85" y="66"/>
      <point x="90" y="76" type="curve"/>
      <point x="376" y="76" type="line" smooth="yes"/>
      <point x="471" y="76"/>
      <point x="507" y="82"/>
      <point x="513" y="115" type="curve" smooth="yes"/>
      <point x="524" y="177" type="line"/>
      <point x="586" y="177" type="line"/>
      <point x="586" y="0" type="line"/>
      <point x="57" y="0" type="line"/>
      <point x="57" y="93" type="line"/>
      <point x="258" y="183"/>
      <point x="455" y="269"/>
      <point x="455" y="396" type="curve" smooth="yes"/>
      <point x="455" y="468"/>
      <point x="403" y="498"/>
    </contour>
  </outline>
</glyph>
<glyph name="whitedownpointingtriangle" format="1">
  <advance width="758"/>
  <outline>
    <contour>
      <point x="693" y="464" type="line"/>
      <point x="64" y="464" type="line"/>
      <point x="378" y="91" type="line"/>
    </contour>
    <contour>
      <point x="594" y="414" type="line"/>
      <point x="585" y="430" type="line"/>
      <point x="372" y="175" type="line"/>
      <point x="386" y="175" type="line"/>
      <point x="172" y="430" type="line"/>
      <point x="164" y="414" type="line"/>
    </contour>
  </outline>
</glyph>
